<?xml version="1.0" encoding="UTF-8" standalone="no"?>
<!DOCTYPE svg PUBLIC "-//W3C//DTD SVG 1.1//EN" "http://www.w3.org/Graphics/SVG/1.1/DTD/svg11.dtd">
<svg width="100%" height="100%" viewBox="0 0 512 512" version="1.1" xmlns="http://www.w3.org/2000/svg" xmlns:xlink="http://www.w3.org/1999/xlink" xml:space="preserve" xmlns:serif="http://www.serif.com/" style="fill-rule:evenodd;clip-rule:evenodd;stroke-linejoin:round;stroke-miterlimit:2;">
    <g id="logo" transform="matrix(0.71487,0,0,0.71487,-376.542,-234.73)">
        <g transform="matrix(0.842264,0,0,0.842264,182.701,178.66)">
            <g>
                <path d="M511.908,281.022L538.216,307.038L511.259,311.127L511.908,281.022Z" style="fill:rgb(201,93,93);"/>
                <g transform="matrix(1,0,0,1,123.862,-9.09495e-13)">
                    <path d="M511.908,281.022L538.216,307.038L511.259,311.127L511.908,281.022Z" style="fill:rgb(201,93,93);"/>
                </g>
                <g transform="matrix(-1.00635,6.10654e-19,6.17398e-19,-1.01242,1228.41,845.783)">
                    <path d="M511.931,281.019L538.216,307.038L505.747,310.706L511.931,281.019Z" style="fill:rgb(201,93,93);"/>
                </g>
                <g transform="matrix(30.3581,0,0,30.3581,-15447.3,-5369.65)">
                    <text x="523.902px" y="195.366px" style="font-family:'Versa-Versa', 'Versa';font-size:12px;fill:rgb(201,93,93);">UP</text>
                </g>
            </g>
            <g transform="matrix(30.3581,0,0,30.3581,-15473.7,-5395.99)">
                <text x="523.902px" y="195.366px" style="font-family:'Versa-Versa', 'Versa';font-size:12px;fill:rgb(255,150,150);">UP</text>
            </g>
        </g>
        <g transform="matrix(0.873481,0,0,0.873481,86.6265,237.795)">
            <g>
                <g transform="matrix(-1.00635,6.10654e-19,6.17398e-19,-1.01242,1529.51,884.39)">
                    <path d="M511.827,281.184L538.216,307.038L508.775,310.016L511.827,281.184Z" style="fill:rgb(191,156,66);"/>
                </g>
                <g transform="matrix(-1.00635,6.10654e-19,6.17398e-19,-1.01242,1682.09,884.359)">
                    <path d="M511.853,281.076L538.216,307.038L511.259,311.127L511.853,281.076Z" style="fill:rgb(191,156,66);"/>
                </g>
                <g transform="matrix(0.960924,-2.60279e-17,-2.63153e-17,0.756656,762.557,106.753)">
                    <path d="M511.853,281.076L539.45,315.615L510.186,324.431L511.853,281.076Z" style="fill:rgb(191,156,66);"/>
                </g>
                <g transform="matrix(0.960924,-2.60279e-17,-2.63153e-17,0.756656,554.521,106.834)">
                    <path d="M511.853,281.076L539.45,315.615L512.019,319.21L511.853,281.076Z" style="fill:rgb(191,156,66);"/>
                </g>
                <g transform="matrix(-1.00635,6.10654e-19,6.17398e-19,-1.01242,1626.3,680.337)">
                    <path d="M511.721,281.256L538.216,307.038L507.086,310.741L511.721,281.256Z" style="fill:rgb(191,156,66);"/>
                </g>
                <g transform="matrix(1,0,0,1,-291.392,122.532)">
                    <text x="1276.53px" y="477.276px" style="font-family:'Versa-Versa', 'Versa';font-size:364.297px;fill:rgb(191,156,66);">IT</text>
                </g>
            </g>
            <g transform="matrix(1,0,0,1,-317.853,96.2729)">
                <text x="1276.53px" y="477.276px" style="font-family:'Versa-Versa', 'Versa';font-size:364.297px;fill:rgb(255,238,103);">IT</text>
            </g>
        </g>
        <g transform="matrix(0.591835,0,0,0.591835,261.968,545.751)">
            <text x="603.254px" y="703.733px" style="font-family:'Socake';font-size:364.297px;fill:rgb(86,141,211);">quest!</text>
        </g>
    </g>
</svg>
