<?xml version="1.0" encoding="UTF-8" standalone="no"?>
<!DOCTYPE svg PUBLIC "-//W3C//DTD SVG 1.1//EN" "http://www.w3.org/Graphics/SVG/1.1/DTD/svg11.dtd">
<svg width="100%" height="100%" viewBox="0 0 1920 1080" version="1.1" xmlns="http://www.w3.org/2000/svg" xmlns:xlink="http://www.w3.org/1999/xlink" xml:space="preserve" xmlns:serif="http://www.serif.com/" style="fill-rule:evenodd;clip-rule:evenodd;stroke-linecap:round;stroke-linejoin:round;stroke-miterlimit:1.5;">
    <g>
        <g transform="matrix(1.10894,0,0,1.07131,-203.842,3.77544)">
            <path d="M106.798,-15.565C106.798,-15.565 93.982,118.995 276.599,154.237C459.217,189.479 276.599,292.001 276.599,357.679C276.599,423.357 359.098,513.864 515.283,357.679C671.469,201.493 931.746,274.348 765.18,107.782C598.614,-58.784 469.661,-187.738 469.661,-187.738C469.661,-187.738 483.245,-89.99 371.913,-89.99C260.58,-89.99 106.798,-15.565 106.798,-15.565Z" style="fill:rgb(255,173,173);"/>
        </g>
        <g transform="matrix(1.17094,0,0,1.17439,-212.019,603.302)">
            <path d="M34.712,341.507C34.712,341.507 528.098,697.13 528.098,341.507C528.098,-14.115 302.807,36.569 287.813,51.563C272.819,66.557 103.818,136.464 103.818,235.557C103.818,334.651 34.712,265.065 34.712,341.507Z" style="fill:rgb(173,246,255);"/>
        </g>
        <g transform="matrix(1.22079,0,0,1.10869,-214.631,166.169)">
            <path d="M671.917,448.973C671.917,448.973 723.228,610.415 884.67,448.973C1046.11,287.531 989.795,288.783 884.67,288.783C779.545,288.783 685.809,188.867 679.426,288.783C672.917,390.677 642.313,376.952 671.917,448.973Z" style="fill:rgb(255,154,200);"/>
        </g>
        <g transform="matrix(1.5581,0,0,1.6014,-392.944,-34.3348)">
            <path d="M671.917,448.973C671.917,448.973 723.228,610.415 884.67,448.973C1046.11,287.531 964.092,288.783 858.967,288.783C753.843,288.783 685.809,188.867 679.426,288.783C672.917,390.677 664.161,390.706 671.917,448.973Z" style="fill:none;stroke:black;stroke-width:3.68px;"/>
        </g>
        <g transform="matrix(1,0,0,1,-70.0833,17.5208)">
            <path d="M968.67,-27.643C968.67,-27.643 1100.03,240.676 1236.99,240.676C1373.95,240.676 1239.39,88.495 1389.17,88.495C1538.95,88.495 1585.4,223.856 1585.4,88.495L1585.4,-146.184L968.67,-27.643Z" style="fill:rgb(173,255,228);"/>
        </g>
        <g transform="matrix(1.23391,0,0,1.10648,-342.713,-37.1769)">
            <path d="M106.798,-15.565C106.798,-15.565 -7.28,114.652 175.337,149.894C357.954,185.135 276.599,292.001 276.599,357.679C276.599,423.357 359.098,513.864 515.283,357.679C671.469,201.493 777.519,343.018 765.18,107.782C747.219,-234.649 510.514,-236.085 469.661,-187.738C469.661,-187.738 483.245,-89.99 371.913,-89.99C260.58,-89.99 106.798,-15.565 106.798,-15.565Z" style="fill:none;stroke:black;stroke-width:4.96px;"/>
        </g>
        <g transform="matrix(1.40535,0,0,1.20003,-290.111,604.763)">
            <path d="M34.712,341.507C34.712,341.507 570.242,765.067 570.242,409.445C570.242,365.139 566.091,326.085 558.794,291.691C507.522,50.023 300.939,38.437 287.813,51.563C272.819,66.557 103.818,136.464 103.818,235.557C103.818,334.651 34.712,265.065 34.712,341.507Z" style="fill:none;stroke:black;stroke-width:4.45px;"/>
        </g>
        <g transform="matrix(1.20967,0,0,1.26501,-303.405,45.148)">
            <path d="M957.569,-88.427C957.569,-92.526 993.767,-53.971 1043,8.748C1065.68,37.657 1099.71,83.291 1118.91,111.519C1169.51,185.872 1174.83,234.924 1236.99,240.676C1373.37,253.294 1239.39,88.495 1389.17,88.495C1538.95,88.495 1585.4,223.856 1585.4,88.495C1585.4,-46.866 1632.28,-100.597 1632.28,-100.597L957.569,-88.427Z" style="fill:none;stroke:black;stroke-width:4.7px;"/>
        </g>
        <path d="M1954.16,295.843C1954.16,295.843 1811.49,248.287 1817.75,417.237C1824,586.188 1730.14,547.392 1665.06,612.47C1599.99,677.547 1576.83,805.824 1680.71,909.698C1784.58,1013.57 1475.15,1039.54 1417.89,1096.8C1360.64,1154.05 1698.54,1124.02 1698.54,1124.02L2001.71,1179.39L2141.88,626.236L1954.16,295.843Z" style="fill:rgb(173,246,255);"/>
        <g transform="matrix(1.36319,0,0,1.03939,-677.785,-116.534)">
            <path d="M2069.83,387.352C2069.83,387.352 1811.49,248.287 1817.75,417.237C1824,586.188 1768.7,544.984 1703.62,610.061C1638.55,675.139 1597.03,873.252 1700.9,977.126C1804.78,1081 1618.37,1167.17 1561.11,1224.43C1503.86,1281.68 1724.25,1244.42 1724.25,1244.42L2001.71,1179.39L2141.88,626.236L2069.83,387.352Z" style="fill:none;stroke:black;stroke-width:4.79px;"/>
        </g>
        <path d="M1130.68,843.995C1130.68,843.995 959.225,837.737 1048.08,926.593C1136.94,1015.45 1149.45,957.88 1180.74,926.593C1212.03,895.306 1185.74,843.995 1130.68,843.995Z" style="fill:rgb(255,173,173);"/>
        <g transform="matrix(1.18961,0,0,1.44251,-238.941,-390.958)">
            <path d="M1130.68,843.995C1130.68,843.995 959.225,837.737 1048.08,926.593C1136.94,1015.45 1149.45,957.88 1180.74,926.593C1212.03,895.306 1185.74,843.995 1130.68,843.995Z" style="fill:none;stroke:black;stroke-width:4.4px;"/>
        </g>
    </g>
</svg>
